<svg id="Capa_1" enable-background="new 0 0 512 512" height="512" viewBox="0 0 512 512" width="512" xmlns="http://www.w3.org/2000/svg"><g><g><path d="m482 436h-452v-240h151.63l3.574 9.902c10.507 29.137 33.47 33.001 39.8 80.098h62.095c6.691-45.601 30.213-53.303 39.668-79.995l3.53-10.005h151.703z" fill="#405680"/></g><path d="m255.987 436h226.013v-240h-151.703l-3.53 10.005c-9.454 26.691-32.977 34.393-39.668 79.995h-31.111v150z" fill="#293e66"/><g id="Idea_1_"><g><g><path d="m437 496h-362c-41.353 0-75-33.647-75-75v-15h512v15c0 41.353-33.647 75-75 75z" fill="#e1e6f0"/></g></g><g><path d="m316 316h-120v-15c0-19.336-6.636-37.412-18.691-50.918-8.833-9.888-15.864-21.65-20.317-33.984-6.138-16.992-7.617-35.757-4.263-54.272 7.749-42.217 42.363-76.787 84.199-84.111 65.89-11.671 124.072 38.432 124.072 103.285 0 12.07-2.007 23.848-5.962 35.01-4.072 11.543-10.356 22.324-18.633 32.036-13.154 15.498-20.405 34.321-20.405 52.954z" fill="#ffdf40"/></g><g><path d="m211 346h90v30h-90z" fill="#e1e6f0"/></g><g><path d="m304.394 30.047h29.995v30.001h-29.995z" fill="#ffbe40" transform="matrix(.423 -.906 .906 .423 143.52 315.435)"/></g><g><path d="m355.911 69.58h29.998v30.009h-29.998z" fill="#ffbe40" transform="matrix(.766 -.642 .642 .766 32.317 258.029)"/></g><g><path d="m385.889 127.183h29.997v29.997h-29.997z" fill="#ffbe40" transform="matrix(.966 -.259 .259 .966 -23.139 108.601)"/></g><g><path d="m241 16h30v30h-30z" fill="#ffdf40"/></g><g><path d="m177.608 30.05h30.001v29.995h-30.001z" fill="#ffdf40" transform="matrix(.906 -.422 .422 .906 -1.001 85.581)"/></g><g><path d="m126.086 69.585h30.009v29.998h-30.009z" fill="#ffdf40" transform="matrix(.643 -.766 .766 .643 -14.385 138.328)"/></g><g><path d="m96.114 127.183h29.997v29.997h-29.997z" fill="#ffdf40" transform="matrix(.259 -.966 .966 .259 -54.983 212.709)"/></g></g><path d="m255.987 16h15.013v30h-15.013z" fill="#ffbe40"/><path d="m512 406h-256.013v90h181.013c41.353 0 75-33.647 75-75z" fill="#cfd7e6"/><path d="m255.987 346h45.013v30h-45.013z" fill="#cfd7e6"/><path d="m255.987 316h60.013v-15c0-18.633 7.251-37.456 20.405-52.954 8.276-9.712 14.561-20.493 18.633-32.036 3.955-11.162 5.962-22.94 5.962-35.01 0-58.482-47.402-104.509-105.013-104.522z" fill="#ffbe40"/></g></svg>